<?xml version="1.0" encoding="iso-8859-1"?>
<!-- Generator: Adobe Illustrator 19.0.0, SVG Export Plug-In . SVG Version: 6.00 Build 0)  -->
<svg version="1.1" id="Layer_1" xmlns="http://www.w3.org/2000/svg" xmlns:xlink="http://www.w3.org/1999/xlink" x="0px" y="0px"
	 viewBox="0 0 512 512" style="enable-background:new 0 0 512 512;" xml:space="preserve">
<path style="fill:#9B9B9B;" d="M388.042,503.916H150.905c-11.906,0-21.558-9.651-21.558-21.558l-10.779-323.368h301.811
	L409.6,482.358C409.6,494.264,399.948,503.916,388.042,503.916z"/>
<path style="fill:#666666;" d="M118.568,137.432v21.558l0.719,21.558h300.374l0.719-21.558v-21.558H118.568z"/>
<path style="fill:#C1C1C1;" d="M420.379,158.989H118.568c-11.906,0-21.558-9.651-21.558-21.558V83.537
	c0-11.906,9.651-21.558,21.558-21.558h301.811c11.906,0,21.558,9.651,21.558,21.558v53.895
	C441.937,149.338,432.285,158.989,420.379,158.989z"/>
<path style="fill:#DBDBDB;" d="M441.937,83.537v21.558H97.011V83.537c0-11.906,9.651-21.558,21.558-21.558h301.811
	C432.285,61.979,441.937,71.63,441.937,83.537z"/>
<path d="M215.579,223.663v204.8c0,4.465-3.618,8.084-8.084,8.084c-4.466,0-8.084-3.62-8.084-8.084v-204.8
	c0-4.465,3.618-8.084,8.084-8.084C211.96,215.579,215.579,219.199,215.579,223.663z M78.147,495.832H67.368
	c-4.466,0-8.084,3.62-8.084,8.084S62.903,512,67.368,512h10.779c4.466,0,8.084-3.62,8.084-8.084S82.613,495.832,78.147,495.832z
	 M452.716,83.537v53.895c0,13.627-9.243,25.134-21.787,28.586l-10.549,316.486C420.299,498.781,407.032,512,390.737,512H239.832
	c-4.466,0-8.084-3.62-8.084-8.084s3.618-8.084,8.084-8.084h150.905c7.43,0,13.474-6.044,13.474-13.474
	c0-0.089,0.001-0.18,0.004-0.269l10.501-315.015h-34.758c-4.466,0-8.084-3.62-8.084-8.084c0-4.465,3.618-8.084,8.084-8.084h43.073
	c0.025,0,0.05,0,0.07,0c7.417-0.015,13.447-6.053,13.447-13.474V83.537c0-7.43-6.044-13.474-13.474-13.474H121.263
	c-7.43,0-13.474,6.044-13.474,13.474V102.4h185.937c4.466,0,8.084,3.62,8.084,8.084s-3.618,8.084-8.084,8.084H107.789v18.863
	c0,7.42,6.03,13.459,13.447,13.474c0.023,0,0.046,0,0.07,0h215.536c4.466,0,8.084,3.62,8.084,8.084c0,4.465-3.618,8.084-8.084,8.084
	H129.621l10.501,315.015c0.003,0.089,0.004,0.18,0.004,0.269c0,7.43,6.044,13.474,13.474,13.474h53.895
	c4.466,0,8.084,3.62,8.084,8.084S211.96,512,207.495,512h-97.011c-4.466,0-8.084-3.62-8.084-8.084s3.618-8.084,8.084-8.084h16.717
	c-2.051-4.003-3.22-8.534-3.243-13.328l-10.549-316.486c-12.545-3.451-21.787-14.959-21.787-28.586V83.537
	c0-16.345,13.298-29.642,29.642-29.642h35.032V29.642C156.295,13.297,169.593,0,185.937,0H358.4
	c16.344,0,29.642,13.297,29.642,29.642v24.253h35.032C439.418,53.895,452.716,67.192,452.716,83.537z M371.874,29.642
	c0-7.43-6.044-13.474-13.474-13.474H185.937c-7.43,0-13.474,6.044-13.474,13.474v24.253h199.411V29.642z M280.253,428.463v-204.8
	c0-4.465-3.618-8.084-8.084-8.084c-4.466,0-8.084,3.62-8.084,8.084v204.8c0,4.465,3.618,8.084,8.084,8.084
	C276.634,436.547,280.253,432.928,280.253,428.463z M344.926,428.463v-204.8c0-4.465-3.618-8.084-8.084-8.084
	c-4.466,0-8.084,3.62-8.084,8.084v204.8c0,4.465,3.618,8.084,8.084,8.084C341.308,436.547,344.926,432.928,344.926,428.463z"/>
<g>
</g>
<g>
</g>
<g>
</g>
<g>
</g>
<g>
</g>
<g>
</g>
<g>
</g>
<g>
</g>
<g>
</g>
<g>
</g>
<g>
</g>
<g>
</g>
<g>
</g>
<g>
</g>
<g>
</g>
</svg>
