<?xml version="1.0" encoding="iso-8859-1"?>
<!-- Generator: Adobe Illustrator 19.0.0, SVG Export Plug-In . SVG Version: 6.00 Build 0)  -->
<svg version="1.1" id="Layer_1" xmlns="http://www.w3.org/2000/svg" xmlns:xlink="http://www.w3.org/1999/xlink" x="0px" y="0px"
	 viewBox="0 0 512 512" style="enable-background:new 0 0 512 512;" xml:space="preserve">
<path style="fill:#B8C8D9;" d="M322.783,100.174H189.217c-9.228,0-16.696-7.467-16.696-16.696V16.696
	C172.521,7.467,179.989,0,189.217,0h133.566c9.228,0,16.696,7.467,16.696,16.696v66.783
	C339.479,92.707,332.011,100.174,322.783,100.174z M205.913,66.783h100.174V33.391H205.913V66.783z"/>
<path style="fill:#A3B8CC;" d="M322.783,0H256v33.391h50.087v33.391H256v33.391h66.783c9.228,0,16.696-7.467,16.696-16.696V16.696
	C339.479,7.467,332.011,0,322.783,0z"/>
<path style="fill:#B8C8D9;" d="M422.957,133.566H89.043c-9.18,0-16.696,7.477-16.696,16.696v345.045
	c0,9.214,7.482,16.693,16.696,16.693h333.914c9.214,0,16.696-7.48,16.696-16.693V150.262
	C439.653,141.043,432.138,133.566,422.957,133.566z"/>
<path style="fill:#A3B8CC;" d="M422.957,133.566H256V512h166.957c9.214,0,16.696-7.48,16.696-16.693V150.262
	C439.653,141.043,432.138,133.566,422.957,133.566z"/>
<g>
	<path style="fill:#E6F3FF;" d="M239.304,217.044v211.479c0,9.22,7.474,16.696,16.696,16.696c9.221,0,16.696-7.475,16.696-16.696
		V217.044c0-9.223-7.475-16.696-16.696-16.696C246.778,200.349,239.304,207.822,239.304,217.044"/>
	<path style="fill:#E6F3FF;" d="M139.13,217.044v211.479c0,9.22,7.474,16.696,16.696,16.696c9.22,0,16.696-7.475,16.696-16.696
		V217.044c0-9.223-7.475-16.696-16.696-16.696C146.604,200.349,139.13,207.822,139.13,217.044"/>
</g>
<g>
	<path style="fill:#CFDBE6;" d="M339.479,217.044v211.479c0,9.22,7.474,16.696,16.696,16.696c9.22,0,16.696-7.475,16.696-16.696
		V217.044c0-9.223-7.475-16.696-16.696-16.696C346.953,200.349,339.479,207.822,339.479,217.044"/>
	<path style="fill:#CFDBE6;" d="M256,200.349v244.871c9.221,0,16.696-7.475,16.696-16.696V217.044
		C272.696,207.822,265.22,200.349,256,200.349z"/>
</g>
<path style="fill:#E6F3FF;" d="M456.349,66.783H55.651c-9.18,0-16.696,7.477-16.696,16.696v66.783
	c0,9.214,7.482,16.693,16.696,16.693h400.697c9.214,0,16.696-7.48,16.696-16.693V83.479
	C473.044,74.317,465.586,66.783,456.349,66.783z"/>
<path style="fill:#CFDBE6;" d="M456.349,66.783H256v100.172h200.349c9.214,0,16.696-7.48,16.696-16.693V83.479
	C473.044,74.317,465.586,66.783,456.349,66.783z"/>
<g>
</g>
<g>
</g>
<g>
</g>
<g>
</g>
<g>
</g>
<g>
</g>
<g>
</g>
<g>
</g>
<g>
</g>
<g>
</g>
<g>
</g>
<g>
</g>
<g>
</g>
<g>
</g>
<g>
</g>
</svg>
