<?xml version="1.0" encoding="iso-8859-1"?>
<!-- Generator: Adobe Illustrator 19.0.0, SVG Export Plug-In . SVG Version: 6.00 Build 0)  -->
<svg version="1.1" id="Layer_1" xmlns="http://www.w3.org/2000/svg" xmlns:xlink="http://www.w3.org/1999/xlink" x="0px" y="0px"
	 viewBox="0 0 512 512" style="enable-background:new 0 0 512 512;" xml:space="preserve">
<circle style="fill:#D5E2E8;" cx="256" cy="256" r="245.801"/>
<circle style="fill:#3CC4DC;" cx="256" cy="256" r="121.371"/>
<circle style="fill:#272828;" cx="256" cy="256" r="38.757"/>
<path d="M256,512c-68.38,0-132.667-26.628-181.02-74.981C26.628,388.667,0,324.381,0,256S26.628,123.333,74.98,74.981
	C123.333,26.628,187.62,0,256,0s132.667,26.628,181.02,74.981C485.372,123.333,512,187.619,512,256s-26.628,132.667-74.98,181.019
	C388.667,485.372,324.38,512,256,512z M256,20.398C126.089,20.398,20.398,126.089,20.398,256S126.089,491.602,256,491.602
	S491.602,385.911,491.602,256S385.911,20.398,256,20.398z"/>
<path d="M256,387.57c-72.548,0-131.57-59.022-131.57-131.57S183.452,124.43,256,124.43S387.57,183.452,387.57,256
	S328.548,387.57,256,387.57z M256,144.829c-61.3,0-111.171,49.871-111.171,111.171S194.7,367.171,256,367.171
	S367.171,317.3,367.171,256S317.3,144.829,256,144.829z"/>
<path d="M256,304.956c-26.994,0-48.956-21.961-48.956-48.956s21.962-48.956,48.956-48.956s48.956,21.961,48.956,48.956
	C304.956,282.995,282.994,304.956,256,304.956z M256,227.442c-15.747,0-28.558,12.811-28.558,28.558s12.811,28.558,28.558,28.558
	s28.558-12.811,28.558-28.558S271.747,227.442,256,227.442z"/>
<path d="M464.064,266.199c-5.633,0-10.199-4.567-10.199-10.199c0-88.923-59.824-167.407-145.481-190.86
	c-5.433-1.487-8.632-7.098-7.143-12.53c1.487-5.433,7.1-8.633,12.531-7.144C408.266,71.339,474.263,157.914,474.263,256
	C474.263,261.632,469.697,266.199,464.064,266.199z"/>
<path d="M270.289,58.618c-0.233,0-0.465-0.007-0.701-0.022c-4.491-0.306-9.063-0.46-13.588-0.46
	c-5.633,0-10.199-4.567-10.199-10.199S250.367,37.737,256,37.737c4.983,0,10.02,0.17,14.968,0.505
	c5.62,0.381,9.867,5.246,9.486,10.865C280.09,54.493,275.608,58.618,270.289,58.618z"/>
<g>
</g>
<g>
</g>
<g>
</g>
<g>
</g>
<g>
</g>
<g>
</g>
<g>
</g>
<g>
</g>
<g>
</g>
<g>
</g>
<g>
</g>
<g>
</g>
<g>
</g>
<g>
</g>
<g>
</g>
</svg>
